# xmcd
#
# Track frame offsets: 
#        183
#        9873
#        19858
#        29830
#        42595
#        51153
#        61115
#        70200
#        80510
#        94675
#        104350
#        121985
#        134975
#        147363
#        166830
#        181100
#        188958
#        200488
#
# Disc length: 2896 seconds
#
# Revision: 6
# Processed by: cddbd v1.5.2PL0 Copyright (c) Steve Scherf et al.
# Submitted via: ExactAudioCopy v1.0b2
#
DISCID=010b4e12
DTITLE=Various Artist - Country Let's Go!!! (DCD, CD 2)
DYEAR=2003
DGENRE=Country
TTITLE0=George Jones - The race is on (1964)
TTITLE1=Jonny Cash - Rock Island Line (1957)
TTITLE2=Dolly Parton - Please release me (1968)
TTITLE3=Hank Thompson - Oklahoma hills (1961)
TTITLE4=Frankie Miller - Family man (1959)
TTITLE5=Dave Dudley - Cowboy boots (1963)
TTITLE6=Bob Luman - Let's think about living (1960)
TTITLE7=Roger Miller - Engine engine #9 (1965)
TTITLE8=R. Dean Tylor - Indiana wants me (1970)
TTITLE9=Dennis Olsen - Truck drivin' outlaw (1963)
TTITLE10=David Houston - Nashville (1971)
TTITLE11=Faron Young - It's four in the morning (1971)
TTITLE12=Porter Wagoner - A statisfied mind (1955)
TTITLE13=Lynn Anderson - Red River Valley (1992)
TTITLE14=Glen Campbell - Rhinestone cowboy (1975)
TTITLE15=Roger Miller - Dang me (1964)
TTITLE16=Bobby Bare - Music City U.S.A. (1972)
TTITLE17=Boxcar Willie - Take me home (1980)
EXTD=
EXTT0=
EXTT1=
EXTT2=
EXTT3=
EXTT4=
EXTT5=
EXTT6=
EXTT7=
EXTT8=
EXTT9=
EXTT10=
EXTT11=
EXTT12=
EXTT13=
EXTT14=
EXTT15=
EXTT16=
EXTT17=
PLAYORDER=
